<svg preserveAspectRatio="none" width="100%" height="100%" overflow="visible" style="display: block;" viewBox="0 0 20 20" fill="none" xmlns="http://www.w3.org/2000/svg">
<g id="approve-file 1">
<path id="Vector" d="M16.6667 7.5L10.8333 1.66667H5.83333C5.17029 1.66667 4.53441 1.93006 4.06557 2.3989C3.59673 2.86774 3.33333 3.50363 3.33333 4.16667V15.8333C3.33333 16.4964 3.59673 17.1323 4.06557 17.6011C4.53441 18.0699 5.17029 18.3333 5.83333 18.3333H14.1667C14.8297 18.3333 15.4656 18.0699 15.9344 17.6011C16.4033 17.1323 16.6667 16.4964 16.6667 15.8333V7.5Z" fill="var(--fill-0, #B1D6FF)"/>
<path id="Vector_2" d="M16.6667 7.5H12.5C12.058 7.5 11.634 7.3244 11.3215 7.01184C11.0089 6.69928 10.8333 6.27536 10.8333 5.83333V1.66667L16.6667 7.5ZM9.16667 15C9.05722 15.0001 8.94883 14.9786 8.84772 14.9367C8.74661 14.8948 8.65478 14.8333 8.5775 14.7558L6.91083 13.0892C6.75903 12.932 6.67504 12.7215 6.67694 12.503C6.67884 12.2845 6.76648 12.0755 6.92098 11.921C7.07549 11.7665 7.2845 11.6788 7.503 11.6769C7.7215 11.675 7.932 11.759 8.08917 11.9108L9.16667 12.9883L11.9108 10.2442C12.068 10.0924 12.2785 10.0084 12.497 10.0103C12.7155 10.0122 12.9245 10.0998 13.079 10.2543C13.2335 10.4088 13.3212 10.6178 13.3231 10.8363C13.325 11.0548 13.241 11.2653 13.0892 11.4225L9.75583 14.7558C9.67855 14.8333 9.58672 14.8948 9.48561 14.9367C9.3845 14.9786 9.27611 15.0001 9.16667 15Z" fill="var(--fill-0, #004999)"/>
</g>
</svg>
