<svg preserveAspectRatio="none" width="100%" height="100%" overflow="visible" style="display: block;" viewBox="0 0 20 20" fill="none" xmlns="http://www.w3.org/2000/svg">
<g id="building-user-duotone-solid-full 1">
<path id="Vector" d="M2 4V16C2 17.1031 2.89688 18 4 18H9.5C9.5 17.9688 9.5 17.9406 9.5 17.9094C9.5 16.0625 10.6344 14.4812 12.2437 13.825C11.775 13.1687 11.5 12.3656 11.5 11.5C11.5 9.82187 12.5344 8.38438 14 7.79063V4C14 2.89688 13.1031 2 12 2H4C2.89688 2 2 2.89688 2 4ZM5 5.5C5 5.225 5.225 5 5.5 5H6.5C6.775 5 7 5.225 7 5.5V6.5C7 6.775 6.775 7 6.5 7H5.5C5.225 7 5 6.775 5 6.5V5.5ZM5 9.5C5 9.225 5.225 9 5.5 9H6.5C6.775 9 7 9.225 7 9.5V10.5C7 10.775 6.775 11 6.5 11H5.5C5.225 11 5 10.775 5 10.5V9.5ZM6.5 14.5C6.5 13.6719 7.17188 13 8 13C8.67188 13 9.24062 13.4438 9.43125 14.0531C8.83437 14.7469 8.39375 15.5813 8.16875 16.5H6.5V14.5ZM9 5.5C9 5.225 9.225 5 9.5 5H10.5C10.775 5 11 5.225 11 5.5V6.5C11 6.775 10.775 7 10.5 7H9.5C9.225 7 9 6.775 9 6.5V5.5ZM9 9.5C9 9.225 9.225 9 9.5 9H10.5C10.5312 9 10.5656 9.00312 10.5938 9.00937C10.2844 9.61562 10.0844 10.2875 10.0219 11H9.5C9.225 11 9 10.775 9 10.5V9.5Z" fill="var(--fill-0, white)"/>
<path id="Vector_2" d="M15.5 14C16.8813 14 18 12.8813 18 11.5C18 10.1187 16.8813 9 15.5 9C14.1187 9 13 10.1187 13 11.5C13 12.8813 14.1187 14 15.5 14ZM14 15C12.3438 15 11 16.3438 11 18C11 18.5531 11.4469 19 12 19H19C19.5531 19 20 18.5531 20 18C20 16.3438 18.6562 15 17 15H14Z" fill="var(--fill-0, white)"/>
</g>
</svg>
