<svg preserveAspectRatio="none" width="100%" height="100%" overflow="visible" style="display: block;" viewBox="0 0 1064 278.59" fill="none" xmlns="http://www.w3.org/2000/svg">
<g id="Chart Fill">
<path d="M0 261.923C2.53333 260.756 16.6476 254.645 21.7143 251.923C26.781 249.201 38.3619 239.367 43.4286 238.59C48.4952 237.812 60.0762 243.312 65.1429 245.256C70.2095 247.201 81.7905 253.312 86.8571 255.256C91.9238 257.201 103.505 260.756 108.571 261.923C113.638 263.09 125.219 273.034 130.286 265.256C135.352 257.478 146.933 204.59 152 195.256C157.067 185.923 168.648 181.367 173.714 185.256C178.781 189.145 190.362 221.59 195.429 228.59C200.495 235.59 212.076 242.534 217.143 245.256C222.21 247.978 233.79 250.367 238.857 251.923C243.924 253.478 255.505 257.423 260.571 258.59C265.638 259.756 277.219 262.701 282.286 261.923C287.352 261.145 298.933 258.534 304 251.923C309.067 245.312 320.648 213.034 325.714 205.256C330.781 197.478 342.362 188.367 347.429 185.256C352.495 182.145 364.076 174.701 369.143 178.59C374.21 182.478 385.79 210.812 390.857 218.59C395.924 226.367 407.505 241.367 412.571 245.256C417.638 249.145 429.219 250.367 434.286 251.923C439.352 253.478 450.933 257.423 456 258.59C461.067 259.756 472.648 261.145 477.714 261.923C482.781 262.701 494.362 265.256 499.429 265.256C504.495 265.256 516.076 263.09 521.143 261.923C526.21 260.756 537.79 257.201 542.857 255.256C547.924 253.312 559.505 245.645 564.571 245.256C569.638 244.867 581.219 257.756 586.286 251.923C591.352 246.09 602.933 201.478 608 195.256C613.067 189.034 624.648 193.534 629.714 198.59C634.781 203.645 646.362 232.367 651.429 238.59C656.495 244.812 668.076 249.59 673.143 251.923C678.21 254.256 689.79 257.423 694.857 258.59C699.924 259.756 711.505 261.145 716.571 261.923C721.638 262.701 733.219 264.478 738.286 265.256C743.352 266.034 754.933 268.978 760 268.59C765.067 268.201 776.648 263.867 781.714 261.923C786.781 259.978 798.362 254.645 803.429 251.923C808.495 249.201 820.076 245.201 825.143 238.59C830.21 231.978 841.79 202.256 846.857 195.256C851.924 188.256 863.505 179.756 868.571 178.59C873.638 177.423 885.219 182.145 890.286 185.256C895.352 188.367 906.933 200.201 912 205.256C917.067 210.312 928.648 223.923 933.714 228.59C938.781 233.256 950.362 266.645 955.429 245.256C960.495 223.867 972.076 73.2563 977.143 45.2563C982.21 17.2563 993.79 -12.2437 998.857 5.25627C1003.92 22.7563 1015.5 169.201 1020.57 195.256C1025.64 221.312 1037.22 223.534 1042.29 228.59C1047.35 233.645 1061.47 237.423 1064 238.59V278.59H0V261.923Z" fill="url(#paint0_linear_0_60)"/>
</g>
<defs>
<linearGradient id="paint0_linear_0_60" x1="532" y1="1.07131e-07" x2="532" y2="278.59" gradientUnits="userSpaceOnUse">
<stop stop-color="#6566F1" stop-opacity="0.5"/>
<stop offset="0.3" stop-color="#6566F1" stop-opacity="0.25"/>
<stop offset="0.6" stop-color="#6566F1" stop-opacity="0.1"/>
<stop offset="1" stop-color="#6566F1" stop-opacity="0"/>
</linearGradient>
</defs>
</svg>
