<svg preserveAspectRatio="none" width="100%" height="100%" overflow="visible" style="display: block;" viewBox="0 0 1066 270.625" fill="none" xmlns="http://www.w3.org/2000/svg">
<path id="Chart Line" d="M1.00024 262.923C3.53357 261.756 17.6479 255.645 22.7145 252.923C27.7812 250.201 39.3621 240.367 44.4288 239.59C49.4955 238.812 61.0764 244.312 66.1431 246.256C71.2098 248.201 82.7907 254.312 87.8574 256.256C92.924 258.201 104.505 261.756 109.572 262.923C114.638 264.09 126.219 274.034 131.286 266.256C136.353 258.479 147.934 205.59 153 196.256C158.067 186.923 169.648 182.367 174.715 186.256C179.781 190.145 191.362 222.59 196.429 229.59C201.495 236.59 213.076 243.534 218.143 246.256C223.21 248.979 234.791 251.367 239.857 252.923C244.924 254.479 256.505 258.423 261.572 259.59C266.638 260.756 278.219 263.701 283.286 262.923C288.353 262.145 299.934 259.534 305 252.923C310.067 246.312 321.648 214.034 326.715 206.256C331.781 198.479 343.362 189.367 348.429 186.256C353.495 183.145 365.076 175.701 370.143 179.59C375.21 183.479 386.791 211.812 391.857 219.59C396.924 227.367 408.505 242.367 413.572 246.256C418.638 250.145 430.219 251.367 435.286 252.923C440.353 254.479 451.934 258.423 457 259.59C462.067 260.756 473.648 262.145 478.715 262.923C483.781 263.701 495.362 266.256 500.429 266.256C505.495 266.256 517.076 264.09 522.143 262.923C527.21 261.756 538.791 258.201 543.857 256.256C548.924 254.312 560.505 246.645 565.572 246.256C570.638 245.867 582.219 258.756 587.286 252.923C592.353 247.09 603.934 202.479 609 196.256C614.067 190.034 625.648 194.534 630.715 199.59C635.781 204.645 647.362 233.367 652.429 239.59C657.495 245.812 669.076 250.59 674.143 252.923C679.21 255.256 690.791 258.423 695.857 259.59C700.924 260.756 712.505 262.145 717.572 262.923C722.638 263.701 734.219 265.479 739.286 266.256C744.353 267.034 755.934 269.979 761 269.59C766.067 269.201 777.648 264.867 782.715 262.923C787.781 260.979 799.362 255.645 804.429 252.923C809.495 250.201 821.076 246.201 826.143 239.59C831.21 232.979 842.791 203.256 847.857 196.256C852.924 189.256 864.505 180.756 869.572 179.59C874.638 178.423 886.219 183.145 891.286 186.256C896.353 189.367 907.934 201.201 913 206.256C918.067 211.312 929.648 224.923 934.715 229.59C939.781 234.256 951.362 267.645 956.429 246.256C961.495 224.867 973.076 74.2563 978.143 46.2563C983.21 18.2563 994.791 -11.2437 999.857 6.25632C1004.92 23.7563 1016.5 170.201 1021.57 196.256C1026.64 222.312 1038.22 224.534 1043.29 229.59C1048.35 234.645 1062.47 238.423 1065 239.59" stroke="var(--stroke-0, #A78BFA)" stroke-width="2" stroke-linecap="round" stroke-linejoin="round"/>
</svg>
