<svg preserveAspectRatio="none" width="100%" height="100%" overflow="visible" style="display: block;" viewBox="0 0 20 20" fill="none" xmlns="http://www.w3.org/2000/svg">
<g id="document (1) 1">
<path id="Vector" d="M12.5 1.66667H8.33333C7.67029 1.66667 7.03441 1.93006 6.56557 2.3989C6.09673 2.86774 5.83333 3.50363 5.83333 4.16667V12.5C5.83333 13.163 6.09673 13.7989 6.56557 14.2678C7.03441 14.7366 7.67029 15 8.33333 15H15C15.663 15 16.2989 14.7366 16.7678 14.2678C17.2366 13.7989 17.5 13.163 17.5 12.5V6.66667L12.5 1.66667Z" fill="var(--fill-0, #B1D6FF)"/>
<path id="Vector_2" d="M8.33333 15C7.67029 15 7.03441 14.7366 6.56557 14.2678C6.09673 13.7989 5.83333 13.163 5.83333 12.5V5H5C4.33696 5 3.70107 5.26339 3.23223 5.73223C2.76339 6.20107 2.5 6.83696 2.5 7.5V15.8333C2.5 16.4964 2.76339 17.1323 3.23223 17.6011C3.70107 18.0699 4.33696 18.3333 5 18.3333H11.6667C12.3297 18.3333 12.9656 18.0699 13.4344 17.6011C13.9033 17.1323 14.1667 16.4964 14.1667 15.8333V15H8.33333Z" fill="var(--fill-0, #D8EBFF)"/>
<path id="Vector_3" d="M17.5 6.66667H13.9283C13.5495 6.66667 13.1862 6.51618 12.9183 6.24832C12.6505 5.98045 12.5 5.61715 12.5 5.23833V1.66667L17.5 6.66667Z" fill="var(--fill-0, #004999)"/>
</g>
</svg>
