<svg preserveAspectRatio="none" width="100%" height="100%" overflow="visible" style="display: block;" viewBox="0 0 120 22" fill="none" xmlns="http://www.w3.org/2000/svg">
<g id="Group 1171276290">
<path id="Vector" d="M58.9755 8.07748C61.0981 8.15017 64.0733 7.91864 66.1008 8.30457C69.523 8.95615 69.8364 14.1617 66.8375 15.914C67.1242 16.4199 69.0856 21.2264 69.0685 21.6069C68.5338 21.9329 66.9296 21.8583 66.2931 21.7355C66.1149 21.7012 66.0384 21.4386 65.9738 21.2936C65.416 19.8739 64.683 17.7146 64.0547 16.3991C63.1791 16.4153 62.2381 16.4506 61.3699 16.3945C61.4338 17.9377 61.3922 20.231 61.3625 21.7801C60.6102 21.8415 59.3491 21.8142 58.573 21.8212C58.4423 19.858 58.524 16.9248 58.5255 14.901C58.527 12.9929 58.4416 10.1298 58.5648 8.29545C58.7149 8.08155 58.6621 8.1455 58.9755 8.07748ZM61.3907 13.8969C62.683 13.913 64.6659 14.1521 65.6685 13.369C66.1446 12.702 66.1847 11.5273 65.4323 11.0938C64.3027 10.4428 62.6236 10.9092 61.3647 10.7432C61.3833 11.7674 61.3551 12.8913 61.3907 13.8969Z" fill="var(--fill-0, #0081FE)"/>
<path id="Vector_2" d="M88.2052 8.0667C88.7385 8.08583 90.1072 8.02513 90.437 8.30343C90.5781 8.79647 90.5446 12.3197 90.535 13.0123C90.4934 15.8805 90.6011 18.9155 90.4934 21.7693C90.0151 21.8238 88.3976 21.865 87.9839 21.7642C87.7715 21.5947 87.7507 21.2406 87.6943 20.9513C86.2334 22.1021 85.0748 22.242 83.3214 21.5947C81.5865 20.5269 80.9352 19.1 80.7696 17.0682C80.4428 13.0578 84.2705 9.47456 87.7618 12.6362C87.7158 11.3263 87.7366 9.91788 87.7685 8.60237C87.7782 8.21674 87.8985 8.18202 88.2052 8.0667ZM85.9757 19.6341C89.0652 19.2987 88.806 13.6492 85.6452 13.7823C82.3002 14.5731 83.1788 19.9426 85.9757 19.6341Z" fill="var(--fill-0, #0081FE)"/>
<path id="Vector_3" d="M28.8155 8.40691C29.6135 8.41098 30.4115 8.41038 31.2095 8.40518C31.113 9.88911 31.292 11.6823 31.1622 13.1152C32.0136 12.4836 32.5165 12.0991 33.6044 11.9551C36.922 11.516 39.0408 14.7361 38.5299 17.8249C38.3629 18.8343 38.0281 19.5482 37.3991 20.3495C36.1358 21.7653 34.4411 22.3485 32.6177 21.6511C32.0723 21.4425 31.6464 21.1032 31.1755 20.7626C31.1856 21.0908 31.2011 21.4187 31.2221 21.7463C30.3945 21.7252 29.6245 21.7357 28.7964 21.7537C28.8083 17.3201 28.7531 12.8351 28.8155 8.40691ZM34.1644 19.7033C34.7935 19.5437 35.5318 19.1177 35.8037 18.5159C36.8767 16.1399 35.7618 13.9623 33.1293 14.1622C29.9846 14.942 30.4699 20.1455 34.1644 19.7033Z" fill="var(--fill-0, #222121)"/>
<path id="Vector_4" d="M4.31237 11.9125C5.47414 11.7861 6.51455 12.4339 7.37033 13.1195L7.40309 12.1298L9.79227 12.1253C9.72892 13.2036 9.7665 14.6349 9.76598 15.7516L9.77615 21.7543C8.99998 21.709 8.17346 21.7342 7.39158 21.7443L7.38534 20.7146L6.84883 21.1594C5.28795 22.2799 3.31986 22.2051 1.83303 20.987C0.81594 20.1433 0.170629 18.9246 0.0389529 17.5986C-0.26792 14.5735 1.24595 12.2221 4.31237 11.9125ZM5.53147 19.6969C7.88768 18.999 8.21453 15.6612 6.14448 14.4169C5.59475 14.0864 4.99103 14.1375 4.37216 14.1609C2.74429 14.5807 2.07789 16.1784 2.4727 17.7559C2.63995 18.4449 3.07062 19.0382 3.66966 19.4048C4.26521 19.7621 4.86262 19.7996 5.53147 19.6969Z" fill="var(--fill-0, #222121)"/>
<path id="Vector_5" d="M17.3248 11.9143C18.5975 11.7336 19.5716 12.6192 20.2283 13.5947C20.353 13.4096 20.4901 13.2334 20.6387 13.0674C22.3219 11.1987 25.9536 11.6543 26.399 14.1061C26.8006 16.3169 26.4969 19.4383 26.5993 21.7478C25.8095 21.7193 24.9663 21.7347 24.1715 21.7369C24.1719 20.5108 24.4242 15.2671 23.6906 14.5093C23.4107 14.2202 23.0601 14.0983 22.6645 14.0973C22.154 14.0959 21.6607 14.226 21.2935 14.6054C20.2395 15.6942 20.5609 18.6665 20.5673 20.1119C20.5606 20.6576 20.5657 21.2033 20.5827 21.7487C19.7898 21.7183 18.9598 21.7346 18.1633 21.7395L18.1641 21.6684C18.1808 19.8945 18.1829 18.1102 18.1418 16.336C18.1286 15.7669 17.9544 14.8502 17.5143 14.4455C16.4477 13.4648 14.8089 14.5193 14.6462 15.8291C14.4096 17.7342 14.4933 19.8097 14.527 21.7466C13.7433 21.7201 12.9073 21.7338 12.1194 21.734C12.163 19.3131 12.0884 16.8673 12.1185 14.4443C12.1279 13.6851 12.1266 12.89 12.0869 12.1333L14.5321 12.1227L14.5039 13.1557C15.6778 12.2261 15.8471 12.0872 17.3248 11.9143Z" fill="var(--fill-0, #222121)"/>
<path id="Vector_6" d="M74.7184 11.4638C77.0214 11.0631 79.2108 12.8486 79.2517 15.2475C79.2881 17.4081 79.3549 19.5776 79.2569 21.7398C78.6494 21.8537 77.3088 21.7945 76.6271 21.7801C76.5684 21.4818 76.552 21.1094 76.5298 20.801C76.0582 21.2484 75.594 21.6221 74.9612 21.7891C73.1699 22.2621 71.2152 21.976 70.4643 20.0731C70.4487 20.0193 70.4339 19.9654 70.4198 19.9113C69.4157 16.161 73.3801 15.7926 75.9171 15.3845C76.2238 15.335 76.3901 15.1969 76.5364 14.9353C76.5409 14.5864 76.3322 14.2567 76.1042 14.0104C75.8398 13.7213 75.4707 13.554 75.0823 13.5467C73.6705 13.5253 73.7707 14.927 72.5929 15.0477C72.07 15.1013 71.1847 15.0158 70.6329 14.9852C70.9352 12.6776 72.5713 11.6636 74.7184 11.4638ZM73.5665 19.7567C74.985 19.9823 76.2045 19.5961 76.5721 17.9844C76.6137 17.7997 76.6055 17.5285 76.5216 17.354C76.3805 17.2822 76.3367 17.3009 76.1785 17.3291C75.6126 17.4358 71.6638 17.7934 73.3808 19.6617C73.3987 19.6808 73.5353 19.7429 73.5665 19.7567Z" fill="var(--fill-0, #0081FE)"/>
<path id="Vector_7" d="M96.4691 11.4588C97.4516 11.3043 98.8063 11.6514 99.6009 12.2465C100.517 12.9316 100.848 13.8862 101.008 14.9906C101.112 15.7153 101.303 21.2385 100.983 21.644C100.877 21.7786 100.517 21.806 100.352 21.8167C99.9203 21.8448 98.7684 21.8991 98.455 21.6213C98.3131 21.4049 98.3711 20.9505 98.38 20.6687C97.2058 22.0145 95.6291 22.2827 93.915 21.7301C93.0528 21.4521 92.6079 20.8113 92.2492 19.9922C91.2377 16.6719 94.4408 15.8237 96.9555 15.5272C97.4108 15.4735 98.2656 15.4358 98.3718 14.9274C98.0599 13.5705 97.2303 13.4131 96.0287 13.7231C95.8556 13.8681 95.6351 14.1025 95.517 14.2933C94.8367 15.3921 93.7123 15.0283 92.4935 14.9982C92.7616 12.6967 94.325 11.6988 96.4691 11.4588ZM95.4316 19.7586C96.2203 19.8995 96.7647 19.892 97.4799 19.4404C97.999 19.1126 98.6822 17.9015 98.3399 17.3372C98.2344 17.3213 98.1386 17.2963 98.0369 17.3277C96.9986 17.5133 95.5407 17.6223 94.8285 18.5088C94.4379 18.9944 95.0001 19.5485 95.4316 19.7586Z" fill="var(--fill-0, #0081FE)"/>
<path id="Vector_8" d="M44.8035 11.9147C47.004 11.7785 48.9638 13.005 49.6785 15.1359C49.9689 16.0015 49.9791 16.7644 50.0006 17.661C47.84 17.5879 44.4101 17.79 42.3803 17.611C43.0467 20.1965 45.2251 20.3037 47.2437 19.0703C47.4554 18.941 47.6134 19.0316 47.8129 19.1004C48.3332 19.3578 48.8562 19.6095 49.3817 19.8554C49.3666 19.8758 49.3511 19.8959 49.3355 19.9158C48.4239 21.0787 47.4646 21.7286 45.9878 21.8832C44.4784 22.0413 43.0686 21.8559 41.8594 20.8612C40.8585 20.0251 40.2252 18.8208 40.0982 17.512C39.9556 16.115 40.3634 14.7176 41.2329 13.6244C42.2516 12.365 43.2992 12.0597 44.8035 11.9147ZM42.4798 15.7124L45.5744 15.7132L47.6724 15.7112C47.0446 14.5495 46.2707 13.8061 44.8541 13.9343C43.5939 14.1764 43.0478 14.5093 42.4798 15.7124Z" fill="var(--fill-0, #222121)"/>
<path id="Vector_9" d="M108.129 11.4603C108.466 11.4546 108.406 11.4027 108.629 11.574C108.89 12.1248 108.746 13.419 108.713 14.0762C107.964 14.1658 107.139 14.0281 106.531 14.5832C105.252 15.7504 105.739 19.8567 105.638 21.7627C104.972 21.8402 103.783 21.8018 103.042 21.8229C102.896 21.3846 102.923 12.1263 103.091 11.729C103.598 11.5635 105.012 11.6505 105.596 11.6699C105.64 11.9899 105.606 12.1315 105.789 12.3591C106.081 12.3706 106.771 11.7241 107.169 11.6101C107.531 11.5065 107.758 11.4946 108.129 11.4603Z" fill="var(--fill-0, #0081FE)"/>
<path id="Vector_10" d="M55.412 11.9044C55.6504 11.9265 56.1877 12.037 56.446 12.0817C56.2633 12.5132 55.8229 13.9744 55.5345 14.1472C55.4049 14.0673 55.2711 13.9819 55.1152 13.9772C54.8685 13.9699 54.4643 14.1844 54.2968 14.3651C53.4275 15.3029 53.6886 20.2807 53.73 21.7543C52.9796 21.7146 52.2479 21.7267 51.4969 21.7326L51.4313 21.722C51.4073 21.6886 51.3783 21.6484 51.3444 21.6014C51.3361 18.8984 51.3429 14.6488 51.3435 12.1242C51.9883 12.1322 52.6877 12.1102 53.3367 12.1017L53.3966 13.3114C53.9636 12.3261 54.2707 12.0702 55.412 11.9044Z" fill="var(--fill-0, #222121)"/>
<path id="Vector_11" d="M109.421 0C110.305 0.125104 112.016 0.837316 112.783 1.2423C116.337 3.11932 118.92 6.35658 119.925 10.2952C120.001 10.5914 120.046 10.564 119.927 10.7925L119.585 10.8892L118.493 11.1885C116.905 5.73136 114.296 3.28976 109.019 1.55111L109.421 0Z" fill="var(--fill-0, #0081FE)"/>
<path id="Vector_12" d="M108.81 3.54911C109.031 3.56922 109.465 3.73267 109.692 3.80399C112.295 4.62248 114.55 6.5251 115.788 8.98914C115.989 9.3878 116.759 11.251 116.632 11.6395L116.166 11.7716L115.179 12.0891C114.055 8.3109 112.232 6.12772 108.347 5.17946C108.498 4.61803 108.561 4.08003 108.81 3.54911Z" fill="var(--fill-0, #0081FE)"/>
<path id="Vector_13" d="M107.936 6.7979C111.24 7.85071 112.5 9.18219 113.543 12.4943L112.807 12.7338C112.532 12.7909 112.227 12.8943 111.956 12.9779C111.208 10.1871 110.061 9.22663 107.443 8.38487C107.619 7.85967 107.783 7.33048 107.936 6.7979Z" fill="var(--fill-0, #0081FE)"/>
</g>
</svg>
