<svg preserveAspectRatio="none" width="100%" height="100%" overflow="visible" style="display: block;" viewBox="0 0 20 20" fill="none" xmlns="http://www.w3.org/2000/svg">
<g id="money-bill-simple-duotone-solid-full 1">
<path id="Vector" opacity="0" d="M7 10C7 11.6562 8.34375 13 10 13C11.6562 13 13 11.6562 13 10C13 8.34375 11.6562 7 10 7C8.34375 7 7 8.34375 7 10Z" fill="var(--fill-0, white)"/>
<path id="Vector_2" d="M4 4C2.89688 4 2 4.89688 2 6V14C2 15.1031 2.89688 16 4 16H16C17.1031 16 18 15.1031 18 14V6C18 4.89688 17.1031 4 16 4H4ZM10 7C11.6562 7 13 8.34375 13 10C13 11.6562 11.6562 13 10 13C8.34375 13 7 11.6562 7 10C7 8.34375 8.34375 7 10 7Z" fill="var(--fill-0, white)"/>
</g>
</svg>
