<svg preserveAspectRatio="none" width="100%" height="100%" overflow="visible" style="display: block;" viewBox="0 0 20 20" fill="none" xmlns="http://www.w3.org/2000/svg">
<g id="growth 1">
<path id="Vector" d="M10.9375 8.75H9.0625C8.19956 8.75 7.5 9.44956 7.5 10.3125V17.1875C7.5 18.0504 8.19956 18.75 9.0625 18.75H10.9375C11.8004 18.75 12.5 18.0504 12.5 17.1875V10.3125C12.5 9.44956 11.8004 8.75 10.9375 8.75Z" fill="var(--fill-0, #B1D6FF)"/>
<path id="Vector_2" d="M17.1875 6.25H15.3125C14.4496 6.25 13.75 6.94956 13.75 7.8125V17.1875C13.75 18.0504 14.4496 18.75 15.3125 18.75H17.1875C18.0504 18.75 18.75 18.0504 18.75 17.1875V7.8125C18.75 6.94956 18.0504 6.25 17.1875 6.25Z" fill="var(--fill-0, #B1D6FF)"/>
<path id="Vector_3" d="M4.6875 11.25H2.8125C1.94956 11.25 1.25 11.9496 1.25 12.8125V17.1875C1.25 18.0504 1.94956 18.75 2.8125 18.75H4.6875C5.55045 18.75 6.25 18.0504 6.25 17.1875V12.8125C6.25 11.9496 5.55045 11.25 4.6875 11.25Z" fill="var(--fill-0, #B1D6FF)"/>
<path id="Vector_4" d="M2.1875 9.6875C2.225 9.6875 2.26563 9.68437 2.30625 9.675C2.625 9.6125 9.84062 8.1875 17.0031 3.75937L16.8844 4.59687C16.8344 4.9375 17.0719 5.25625 17.4156 5.30312C17.4469 5.30625 17.475 5.30937 17.5062 5.30937C17.8125 5.30937 18.0781 5.08438 18.125 4.77188L18.4375 2.58438C18.4469 2.525 18.4469 2.4625 18.4375 2.4C18.4 2.15937 18.225 1.9625 17.9906 1.89688L15.8031 1.27188C15.4719 1.17813 15.125 1.36875 15.0312 1.7C14.9375 2.03125 15.1281 2.37812 15.4594 2.47187L16.3156 2.71562C9.34375 7.00937 2.14375 8.43438 2.06875 8.45C1.73125 8.51563 1.50938 8.84375 1.57188 9.18125C1.62813 9.48125 1.89062 9.6875 2.18437 9.6875H2.1875Z" fill="var(--fill-0, #004999)"/>
</g>
</svg>
