<svg preserveAspectRatio="none" width="100%" height="100%" overflow="visible" style="display: block;" viewBox="0 0 20 20" fill="none" xmlns="http://www.w3.org/2000/svg">
<g id="percentage (2) 2" clip-path="url(#clip0_0_203)">
<circle id="Ellipse 462" cx="10" cy="10" r="7" fill="var(--fill-0, #004999)"/>
<path id="Vector" d="M12.2083 12.5083C12.2664 12.5663 12.3125 12.6351 12.344 12.7109C12.3754 12.7867 12.3916 12.8679 12.3917 12.95C12.3917 13.1158 12.3258 13.2747 12.2086 13.3919C12.0914 13.5092 11.9324 13.575 11.7667 13.575C11.6009 13.575 11.4419 13.5092 11.3247 13.3919C11.2075 13.2747 11.1417 13.1158 11.1417 12.95C11.1417 12.8679 11.1579 12.7867 11.1894 12.7109C11.2208 12.6351 11.2669 12.5663 11.325 12.5083C11.3829 12.4502 11.4517 12.404 11.5275 12.3726C11.6033 12.3411 11.6846 12.3249 11.7667 12.3249C11.8487 12.3249 11.93 12.3411 12.0058 12.3726C12.0816 12.404 12.1504 12.4502 12.2083 12.5083Z" fill="var(--fill-0, #B1D6FF)"/>
<path id="Vector_2" d="M18.4333 8.38333L17.1833 7.13333C17.085 7.03655 17.0071 6.92106 16.9542 6.79368C16.9012 6.66631 16.8743 6.52961 16.875 6.39167V5.41667C16.8752 5.11566 16.8161 4.81756 16.701 4.53942C16.5859 4.26129 16.4171 4.00857 16.2043 3.79572C15.9914 3.58288 15.7387 3.41409 15.4606 3.299C15.1824 3.18391 14.8843 3.12478 14.5833 3.125H13.6083C13.4705 3.12493 13.334 3.09765 13.2068 3.04474C13.0795 2.99183 12.9639 2.91433 12.8667 2.81667L11.6167 1.56667C11.1876 1.13839 10.6062 0.897857 10 0.897857C9.3938 0.897857 8.81236 1.13839 8.38333 1.56667L7.13333 2.81667C7.03607 2.91433 6.9205 2.99183 6.79323 3.04474C6.66596 3.09765 6.5295 3.12493 6.39167 3.125H5.41667C5.11566 3.12478 4.81756 3.18391 4.53942 3.299C4.26129 3.41409 4.00857 3.58288 3.79572 3.79572C3.58288 4.00857 3.41409 4.26129 3.299 4.53942C3.18391 4.81756 3.12478 5.11566 3.125 5.41667V6.39167C3.12571 6.52961 3.0988 6.66631 3.04584 6.79368C2.99289 6.92106 2.91496 7.03655 2.81667 7.13333L1.56667 8.38333C1.13961 8.81301 0.899915 9.3942 0.899915 10C0.899915 10.6058 1.13961 11.187 1.56667 11.6167L2.81667 12.8667C2.91496 12.9635 2.99289 13.0789 3.04584 13.2063C3.0988 13.3337 3.12571 13.4704 3.125 13.6083V14.5833C3.12478 14.8843 3.18391 15.1824 3.299 15.4606C3.41409 15.7387 3.58288 15.9914 3.79572 16.2043C4.00857 16.4171 4.26129 16.5859 4.53942 16.701C4.81756 16.8161 5.11566 16.8752 5.41667 16.875H6.39167C6.5295 16.8751 6.66596 16.9023 6.79323 16.9553C6.9205 17.0082 7.03607 17.0857 7.13333 17.1833L8.38333 18.4333C8.81301 18.8604 9.3942 19.1001 10 19.1001C10.6058 19.1001 11.187 18.8604 11.6167 18.4333L12.8667 17.1833C12.9639 17.0857 13.0795 17.0082 13.2068 16.9553C13.334 16.9023 13.4705 16.8751 13.6083 16.875H14.5833C14.8843 16.8752 15.1824 16.8161 15.4606 16.701C15.7387 16.5859 15.9914 16.4171 16.2043 16.2043C16.4171 15.9914 16.5859 15.7387 16.701 15.4606C16.8161 15.1824 16.8752 14.8843 16.875 14.5833V13.6083C16.8743 13.4704 16.9012 13.3337 16.9542 13.2063C17.0071 13.0789 17.085 12.9635 17.1833 12.8667L18.4333 11.6167C18.8604 11.187 19.1001 10.6058 19.1001 10C19.1001 9.3942 18.8604 8.81301 18.4333 8.38333ZM6.35833 7.05C6.35731 6.80367 6.40543 6.55961 6.49986 6.3321C6.5943 6.10459 6.73317 5.8982 6.90833 5.725C7.26504 5.38373 7.73967 5.19325 8.23333 5.19325C8.727 5.19325 9.20163 5.38373 9.55833 5.725C9.82227 5.98643 10.0024 6.32052 10.0758 6.6847C10.1491 7.04888 10.1124 7.42666 9.97031 7.7699C9.82819 8.11314 9.58709 8.40629 9.27775 8.61201C8.96841 8.81772 8.60483 8.92668 8.23333 8.925C7.73626 8.92434 7.25973 8.72658 6.90824 8.37509C6.55675 8.02361 6.359 7.54708 6.35833 7.05ZM7.5 13.3917C7.38139 13.5092 7.22116 13.5752 7.05417 13.5752C6.88717 13.5752 6.72694 13.5092 6.60833 13.3917C6.4921 13.2741 6.42692 13.1154 6.42692 12.95C6.42692 12.7846 6.4921 12.6259 6.60833 12.5083L12.5 6.60833C12.6193 6.49217 12.7793 6.42717 12.9458 6.42717C13.1124 6.42717 13.2723 6.49217 13.3917 6.60833C13.5079 6.72595 13.5731 6.88464 13.5731 7.05C13.5731 7.21536 13.5079 7.37405 13.3917 7.49167L7.5 13.3917ZM13.0917 14.275C12.8295 14.5369 12.4955 14.7152 12.132 14.7874C11.7685 14.8596 11.3918 14.8225 11.0494 14.6807C10.7069 14.5389 10.4142 14.2989 10.2082 13.9908C10.0021 13.6828 9.89199 13.3206 9.89167 12.95C9.88999 12.5785 9.99895 12.2149 10.2047 11.9056C10.4104 11.5962 10.7035 11.3551 11.0468 11.213C11.39 11.0709 11.7678 11.0342 12.132 11.1076C12.4961 11.1809 12.8302 11.3611 13.0917 11.625C13.2681 11.7972 13.4078 12.0035 13.5023 12.2312C13.5969 12.4589 13.6443 12.7034 13.6417 12.95C13.6427 13.1963 13.5946 13.4404 13.5001 13.6679C13.4057 13.8954 13.2668 14.1018 13.0917 14.275ZM8.675 7.49167C8.73309 7.43371 8.77918 7.36487 8.81064 7.28909C8.8421 7.2133 8.85831 7.13206 8.85833 7.05C8.85667 6.8846 8.79096 6.72629 8.675 6.60833C8.61709 6.55018 8.54826 6.50404 8.47246 6.47255C8.39667 6.44107 8.31541 6.42486 8.23333 6.42486C8.15126 6.42486 8.07 6.44107 7.9942 6.47255C7.91841 6.50404 7.84958 6.55018 7.79167 6.60833C7.67571 6.72629 7.60999 6.8846 7.60833 7.05C7.60844 7.17353 7.64516 7.29426 7.71384 7.39694C7.78252 7.49962 7.88009 7.57965 7.99423 7.62691C8.10837 7.67416 8.23395 7.68654 8.35511 7.66247C8.47628 7.6384 8.58759 7.57896 8.675 7.49167Z" fill="var(--fill-0, #B1D6FF)"/>
</g>
<defs>
<clipPath id="clip0_0_203">
<rect width="20" height="20" fill="white"/>
</clipPath>
</defs>
</svg>
