<svg preserveAspectRatio="none" width="100%" height="100%" overflow="visible" style="display: block;" viewBox="0 0 20 20" fill="none" xmlns="http://www.w3.org/2000/svg">
<g id="search-volume 1">
<path id="Vector" d="M8.15625 11.8438C7.9125 11.6 7.51875 11.6 7.275 11.8438L5.94375 13.175L5.45 12.6813C5.33125 12.5625 5.1625 12.4875 5 12.5C4.83125 12.5 4.66875 12.575 4.55625 12.6937L2.43125 14.925C1.7 15.6562 1.7 16.8438 2.43125 17.575C2.7875 17.9313 3.25625 18.125 3.75625 18.125C4.25625 18.125 4.725 17.9312 5.06875 17.5875L7.3125 15.4563C7.4375 15.3375 7.50625 15.1813 7.50625 15.0125C7.50625 14.8438 7.44375 14.6812 7.325 14.5625L6.83125 14.0688L8.1625 12.7375C8.40625 12.4937 8.40625 12.1 8.1625 11.8562L8.15625 11.8438Z" fill="var(--fill-0, #004999)"/>
<path id="Vector_2" d="M11.875 14.375C15.3268 14.375 18.125 11.5768 18.125 8.125C18.125 4.67322 15.3268 1.875 11.875 1.875C8.42322 1.875 5.625 4.67322 5.625 8.125C5.625 11.5768 8.42322 14.375 11.875 14.375Z" fill="var(--fill-0, #B1D6FF)"/>
<path id="Vector_3" d="M9.375 6.875H11.25V9.375H9.375C9.03125 9.375 8.75 9.09375 8.75 8.75V7.5C8.75 7.15625 9.03125 6.875 9.375 6.875Z" fill="var(--fill-0, white)"/>
<path id="Vector_4" d="M11.25 9.375L13.5187 10.575C13.9312 10.7625 14.375 10.4188 14.375 9.91875V6.3375C14.375 5.8375 13.9312 5.49375 13.5187 5.68125L11.25 6.88125V9.38125V9.375Z" fill="var(--fill-0, #004999)"/>
</g>
</svg>
