<svg preserveAspectRatio="none" width="100%" height="100%" overflow="visible" style="display: block;" viewBox="0 0 259.985 260" fill="none" xmlns="http://www.w3.org/2000/svg">
<path id="Vector" d="M129.985 0C155.614 0 180.671 7.57525 202.007 21.7737C223.343 35.9722 240.006 56.1604 249.902 79.8011C259.799 103.442 262.487 129.48 257.628 154.644C252.77 179.808 240.582 202.974 222.596 221.232C204.61 239.489 181.629 252.023 156.541 257.259C131.453 262.494 105.377 260.197 81.5908 250.656C57.8043 241.116 37.3685 224.757 22.8516 203.637C8.33465 182.516 0.384414 157.576 0 131.95L49.9944 131.2C50.2309 146.97 55.1234 162.317 64.0569 175.315C72.9903 188.312 85.5663 198.379 100.204 204.25C114.842 210.121 130.889 211.535 146.327 208.313C161.766 205.091 175.908 197.378 186.977 186.143C198.045 174.907 205.545 160.651 208.535 145.166C211.525 129.68 209.87 113.657 203.78 99.1084C197.69 84.5602 187.436 72.1367 174.306 63.3992C161.176 54.6617 145.757 50 129.985 50V0Z" fill="var(--fill-0, #4338CA)"/>
</svg>
